<svg xmlns="http://www.w3.org/2000/svg" xmlns:xlink="http://www.w3.org/1999/xlink" width="500" zoomAndPan="magnify" viewBox="0 0 375 374.999991" height="500" preserveAspectRatio="xMidYMid meet" version="1.0"><path fill="#3444f1" d="M 18.144531 167.539062 L 149.394531 167.539062 C 159.433594 167.539062 167.539062 159.433594 167.539062 149.394531 L 167.539062 18.144531 C 167.539062 8.105469 159.433594 0 149.394531 0 L 18.144531 0 C 8.105469 0 0 8.105469 0 18.144531 L 0 149.394531 C 0 159.433594 8.105469 167.539062 18.144531 167.539062 Z M 18.144531 167.539062 " fill-opacity="1" fill-rule="nonzero"/><path fill="#3444f1" d="M 375 18.144531 C 375 8.105469 366.894531 0 356.855469 0 L 225.605469 0 C 215.566406 0 207.460938 8.105469 207.460938 18.144531 L 207.460938 149.394531 C 207.460938 159.433594 215.566406 167.539062 225.605469 167.539062 L 356.855469 167.539062 C 366.894531 167.539062 375 159.433594 375 149.394531 Z M 375 18.144531 " fill-opacity="1" fill-rule="nonzero"/><path fill="#3444f1" d="M 18.144531 375 L 149.394531 375 C 159.433594 375 167.539062 366.894531 167.539062 356.855469 L 167.539062 225.605469 C 167.539062 215.566406 159.433594 207.460938 149.394531 207.460938 L 18.144531 207.460938 C 8.105469 207.460938 0 215.566406 0 225.605469 L 0 356.855469 C 0 366.894531 8.105469 375 18.144531 375 Z M 18.144531 375 " fill-opacity="1" fill-rule="nonzero"/><path fill="#3444f1" d="M 291.167969 207.460938 C 244.960938 207.460938 207.460938 244.960938 207.460938 291.167969 C 207.460938 337.378906 244.960938 375 291.167969 375 C 337.378906 375 375 337.378906 375 291.167969 C 375 244.960938 337.378906 207.460938 291.167969 207.460938 Z M 291.167969 207.460938 " fill-opacity="1" fill-rule="nonzero"/></svg>